<svg xmlns="http://www.w3.org/2000/svg" viewBox="0 0 48 48"><defs><style>.cls-1{fill:#82bcf4}.cls-2{fill:#6fabe6}</style></defs><g id="Verification"><path class="cls-1" d="m42.52 29 1.4 6.54-6.37 2-2 6.37L29 42.52 24 47l-5-4.48-6.54 1.4-2.05-6.37-6.37-2L5.48 29 1 24l4.48-5-1.4-6.5c7.29-2.35 6.32-1.88 6.5-2.46l1.92-6L19 5.48 24 1l5 4.48 6.54-1.4 2 6.37 6.37 2.05-1.39 6.5L47 24z"/><path class="cls-2" d="M39 37c0 .11.21 0-1.45.55l-2 6.37-6.55-1.4L24 47l-5-4.48-6.54 1.4-2.05-6.37-6.37-2L5.48 29 1 24l4.48-5-1.4-6.5c7.29-2.35 6.32-1.88 6.5-2.46A27 27 0 0 1 39 37z"/><path d="M39 24a15 15 0 1 1-27.42-8.42C19.91 3.38 39 9.28 39 24z" style="fill:#edebf2"/><path d="M35 28a15 15 0 0 1-2.58 8.42 15 15 0 0 1-20.84-20.84A15 15 0 0 1 35 28z" style="fill:#dad7e5"/><path class="cls-1" d="m32.5 20.68-9.38 9.38a3 3 0 0 1-4.24 0l-3.38-3.38a2.12 2.12 0 0 1 3-3l2.5 2.5c11.37-11.37 7.75-7.74 8.5-8.5a2.12 2.12 0 0 1 3 3z"/><path class="cls-2" d="m31.5 21.68-8.38 8.38a3 3 0 0 1-4.24 0l-3.38-3.38a2.11 2.11 0 0 1-.41-2.41 2.11 2.11 0 0 1 2.41.41l2.5 2.5c11.82-11.82 7.8-7.79 8.66-8.65a2.12 2.12 0 0 1 2.84 3.15z"/></g></svg>