<svg xmlns="http://www.w3.org/2000/svg" viewBox="0 0 500.000000 500.000000">
  <style>
    @media (prefers-color-scheme: dark) {
      svg { fill: white; }
    }
  </style>
<path d="M0 2500 l0 -2500 2500 0 2500 0 0 2500 0 2500 -2500 0 -2500 0 0
-2500z m2288 1773 l3 -103 -436 0 -435 0 0 -575 0 -575 333 2 332 3 2 335 2
335 98 0 98 0 3 -438 2 -438 -489 3 c-476 3 -490 4 -517 24 -15 11 -37 38 -48
60 -21 38 -21 54 -24 673 -3 687 -2 699 51 749 52 49 70 51 562 49 l460 -2 3
-102z m1497 2 l0 -100 -537 -3 -538 -2 0 32 c0 40 30 106 58 131 50 45 72 46
557 44 l460 -2 0 -100z m-867 -432 l3 -143 353 0 c372 0 411 -4 459 -48 51
-46 52 -56 52 -392 0 -295 -1 -317 -20 -354 -11 -22 -33 -49 -48 -60 -28 -20
-41 -21 -518 -24 l-490 -3 3 98 3 98 433 3 432 2 0 235 0 235 -342 0 c-189 1
-363 5 -387 9 -54 11 -90 37 -118 87 -21 36 -23 51 -23 215 0 97 3 179 7 183
4 4 50 5 103 4 l95 -3 3 -142z m-630 -1720 l3 -103 -436 0 -435 0 0 -575 0
-575 333 2 332 3 2 335 2 335 98 0 98 0 3 -434 c2 -341 0 -436 -10 -443 -21
-13 -868 -10 -930 3 -65 14 -110 58 -127 123 -8 31 -11 233 -11 659 0 537 2
619 16 660 17 50 54 86 109 105 20 7 189 10 490 9 l460 -2 3 -102z m1406 82
c48 -24 74 -58 86 -111 5 -21 10 -350 10 -730 0 -622 -2 -692 -16 -698 -20 -8
-158 -8 -178 0 -14 6 -16 75 -16 680 l0 674 -330 0 -330 0 0 -674 c0 -605 -2
-674 -16 -680 -20 -8 -158 -8 -178 0 -14 6 -16 77 -16 713 0 664 2 708 19 746
10 22 28 48 39 58 49 44 76 47 492 44 373 -2 397 -3 434 -22z m-296 -1052 l3
-103 -150 0 c-172 0 -161 -7 -161 105 0 113 -11 106 159 103 l146 -3 3 -102z"/>
</g>
</svg>
