<svg version="1.0" xmlns="http://www.w3.org/2000/svg"
 width="500.000000pt" height="500.000000pt" viewBox="0 0 500.000000 500.000000"
 preserveAspectRatio="xMidYMid meet">

<g transform="translate(0.000000,500.000000) scale(0.100000,-0.100000)"
fill="#000000" stroke="none">
<path d="M0 2500 l0 -2500 2500 0 2500 0 0 2500 0 2500 -2500 0 -2500 0 0
-2500z m4450 190 l0 -680 -85 0 -85 0 0 600 0 600 -585 0 -585 0 0 80 0 80
670 0 670 0 0 -680z m-3730 -400 l0 -600 585 0 585 0 0 -80 0 -80 -670 0 -670
0 0 680 0 680 85 0 85 0 0 -600z m910 485 l0 -85 -143 0 c-177 0 -229 -13
-291 -73 -57 -54 -81 -130 -73 -228 13 -157 115 -249 275 -249 l52 0 0 110 0
110 -90 0 -90 0 0 85 0 85 180 0 180 0 0 -280 0 -280 -148 0 c-275 0 -417 62
-495 217 -38 74 -50 148 -45 265 4 90 9 114 35 170 38 81 93 138 174 179 88
44 163 57 332 58 l147 1 0 -85z m560 61 c43 -23 97 -72 116 -107 7 -15 18 -48
24 -75 13 -59 7 -64 -77 -64 -74 0 -93 6 -93 32 0 10 -11 30 -25 43 -32 33
-110 35 -148 5 -47 -37 -44 -118 5 -149 12 -7 52 -17 90 -22 148 -19 242 -104
255 -234 8 -79 -12 -146 -59 -200 -50 -56 -104 -85 -175 -92 l-54 -6 3 84 c3
83 3 84 30 87 15 2 38 17 53 33 56 68 15 151 -81 164 -129 17 -213 66 -256
149 -28 54 -30 165 -4 216 35 67 66 98 128 130 59 30 68 31 148 28 55 -3 97
-11 120 -22z m980 -61 l0 -85 -143 0 c-163 0 -222 -13 -279 -60 -70 -58 -102
-172 -79 -282 27 -126 112 -197 248 -206 l73 -5 0 112 0 111 -85 0 -85 0 0 85
0 85 175 0 175 0 0 -281 0 -281 -172 4 c-138 4 -186 9 -235 25 -127 42 -209
117 -255 231 -18 48 -22 77 -22 187 0 158 18 214 96 301 96 104 213 143 441
143 l147 1 0 -85z m685 -351 c94 -239 172 -439 173 -445 3 -6 -33 -9 -93 -7
l-97 3 -82 232 c-44 128 -83 233 -86 233 -3 0 -42 -105 -87 -232 l-80 -233
-98 -3 c-56 -2 -95 1 -93 6 1 6 79 206 172 446 124 317 174 436 185 436 12 0
63 -120 186 -436z"/>
</g>
</svg>